<svg id="Layer_2" data-name="Layer 2" xmlns="http://www.w3.org/2000/svg" xmlns:xlink="http://www.w3.org/1999/xlink" viewBox="0 0 423.04 364.9"><defs><style>.cls-1{fill:url(#linear-gradient);}.cls-2{fill:url(#linear-gradient-2);}.cls-3{fill:#1754a2;}</style><linearGradient id="linear-gradient" x1="97.84" y1="118.99" x2="353.5" y2="118.99" gradientUnits="userSpaceOnUse"><stop offset="0" stop-color="#6abed6"/><stop offset="1" stop-color="#1754a2"/></linearGradient><linearGradient id="linear-gradient-2" x1="69.7" y1="89.14" x2="353.94" y2="89.14" gradientUnits="userSpaceOnUse"><stop offset="0" stop-color="#6abed6"/><stop offset="1" stop-color="#1754a2"/></linearGradient></defs><title>TheCollective_logomark-boven</title><path class="cls-1" d="M352.34,101.44a73.62,73.62,0,0,0-27.88-46.25C309.18,43.49,289,40.69,270,41.72c-19.78,1.07-39.14,17.58-45.23,30-13.14,26.93-24.3,53.87-33.78,73.15-7.5,15.27-19.91,31.25-40.76,34.86s-33.78-1.29-38.4-3.7c-7.86-4.09-14-7.43-14-7.43s8.33,13.58,22,21.35,27.08,7.06,37,5.39a56.2,56.2,0,0,0,30-15.21c12-11.32,22.58-30.15,22.58-30.15h0c7,11.31,17.87,28.94,42.77,39.7,15.62,6.74,38.1,5.39,53.15.45,15.57-5.11,33.48-25,39.78-38.72C350.23,140.32,356,123.67,352.34,101.44Zm-22.12,40.93c-9.9,17-27.25,31-47.41,31-30.57,0-44.06-11.59-66.38-39.35,0,0,11.75-29.18,13.51-32.91s6.3-14.35,13.65-24.32c4.15-5.64,14.21-13.72,28.15-16.39,5.93-1.13,23.32-3.57,39.22,6.67A56.36,56.36,0,0,1,336,103.87C339,119,334.69,134.71,330.22,142.37Z"/><path class="cls-2" d="M136.76,164.08c11.8-1,25.83-4.68,37.13-22.4,10.19-16,15.47-27.63,23-48.4,8.65-23.92,19.56-42.31,33.3-52,15.52-11,33.66-15.66,55.65-14.89A70.88,70.88,0,0,1,304.7,30s-11.43-11.34-32.59-15a69.8,69.8,0,0,0-40.79,5.17c-13.1,5.7-24.18,17.48-31.84,28a144.8,144.8,0,0,0-15.54,27.81s0-.18-3.52-5.54c-2.55-3.87-11.24-18.49-27.17-26.06-11.88-5.65-34.39-7-47-1.41C88,51,79,63.28,74.36,74.22c-5.64,13.32-5.61,29.45-2.84,42.14,2.84,13,11.77,28.64,22.71,36.84S117.6,165.66,136.76,164.08ZM107.4,142.24c-9.56-4.35-18.92-15.62-21.91-25.91-3.26-11.21-3.09-22.4,4.35-37.23C94.31,70.19,108.51,58,126.16,58,150,58,162.35,66,178.64,90.94a164,164,0,0,1-8.51,23.45c-3.41,7.39-5.55,13.86-11.57,20.88A34,34,0,0,1,137,147,53.87,53.87,0,0,1,107.4,142.24Z"/><path class="cls-3" d="M31.56,250.19a.82.82,0,0,1,.23.58v6.57a.81.81,0,0,1-.23.57.77.77,0,0,1-.57.23H20.79a.3.3,0,0,0-.33.34v37.63a.8.8,0,0,1-.81.8H11.81a.8.8,0,0,1-.81-.8V258.48a.3.3,0,0,0-.34-.34H.81a.74.74,0,0,1-.57-.23.78.78,0,0,1-.24-.57v-6.57a.78.78,0,0,1,.24-.58A.78.78,0,0,1,.81,250H31A.81.81,0,0,1,31.56,250.19Z"/><path class="cls-3" d="M64.62,265q2.79,3.12,2.79,8.68v22.41a.8.8,0,0,1-.81.8H58.76a.79.79,0,0,1-.81-.8V275a5.49,5.49,0,0,0-1.14-3.68A3.82,3.82,0,0,0,53.73,270a4,4,0,0,0-3.19,1.37,5.56,5.56,0,0,0-1.17,3.72v21a.78.78,0,0,1-.24.57.81.81,0,0,1-.57.23H40.71a.79.79,0,0,1-.8-.8V250.77a.79.79,0,0,1,.8-.81h7.85a.81.81,0,0,1,.57.23.78.78,0,0,1,.24.58v14.28c0,.13,0,.21.13.24s.2,0,.34-.17A8.42,8.42,0,0,1,57,261.9,9.74,9.74,0,0,1,64.62,265Z"/><path class="cls-3" d="M94,288.46a5.81,5.81,0,0,0,1.87-2.28.79.79,0,0,1,1-.54l6.37,1.34a.74.74,0,0,1,.61,1,13,13,0,0,1-4.8,6.94,14.11,14.11,0,0,1-8.55,2.52,14.16,14.16,0,0,1-8.85-2.72A12.33,12.33,0,0,1,77,287.52a31.44,31.44,0,0,1-.94-8.38,45.54,45.54,0,0,1,.27-5.5A13.12,13.12,0,0,1,80.59,265q3.59-3.15,9.62-3.15,6.44,0,9.89,3.39t4.06,9.62q.34,3.57.34,6.91a.72.72,0,0,1-.81.81H85.85a.29.29,0,0,0-.33.33,12.1,12.1,0,0,0,.2,2.42,4.65,4.65,0,0,0,1.74,3,5.69,5.69,0,0,0,6.51.17Zm-8.19-14.55a24.13,24.13,0,0,0-.26,2.41.29.29,0,0,0,.33.33h8.72a.3.3,0,0,0,.34-.33,13.55,13.55,0,0,0-.27-2.28,4.87,4.87,0,0,0-1.41-3A4.3,4.3,0,0,0,90.14,270C87.73,270,86.27,271.31,85.78,273.91Z"/><path class="cls-3" d="M136.76,295.64a12.89,12.89,0,0,1-5.4-5.17,15.37,15.37,0,0,1-1.91-7.78V264.05a15,15,0,0,1,1.91-7.68,12.86,12.86,0,0,1,5.4-5.13,17.14,17.14,0,0,1,8-1.82,17.54,17.54,0,0,1,8,1.78,12.94,12.94,0,0,1,5.4,5,14.36,14.36,0,0,1,1.91,7.51v.34a.87.87,0,0,1-.23.6.74.74,0,0,1-.57.27l-7.85.33c-.54,0-.8-.24-.8-.73v-.88a6.13,6.13,0,0,0-1.61-4.42,6.33,6.33,0,0,0-8.59,0,6.13,6.13,0,0,0-1.61,4.42V283.3a6,6,0,0,0,1.61,4.39,6.44,6.44,0,0,0,8.59,0,6,6,0,0,0,1.61-4.39v-.88c0-.49.26-.73.8-.73l7.85.33c.54,0,.8.16.8.47V283a14.75,14.75,0,0,1-1.91,7.58,12.76,12.76,0,0,1-5.4,5.06,18.93,18.93,0,0,1-16.09,0Z"/><path class="cls-3" d="M173,294.5a12.21,12.21,0,0,1-4.42-8.19,46.25,46.25,0,0,1-.47-6.7,38.94,38.94,0,0,1,.47-6.78,12.29,12.29,0,0,1,4.49-8,14.75,14.75,0,0,1,9.52-3,14.55,14.55,0,0,1,9.39,3,12,12,0,0,1,4.43,7.91,39.48,39.48,0,0,1,.54,6.78,47.28,47.28,0,0,1-.47,6.64,12.42,12.42,0,0,1-4.43,8.28,14.65,14.65,0,0,1-9.52,3A14.84,14.84,0,0,1,173,294.5Zm12.61-6.38a5.65,5.65,0,0,0,1.54-3.21,43.67,43.67,0,0,0,.27-5.3,42,42,0,0,0-.27-5.24,5.5,5.5,0,0,0-1.54-3.18,4.65,4.65,0,0,0-6.17,0,5.56,5.56,0,0,0-1.54,3.18,40.82,40.82,0,0,0-.34,5.24c0,1.38.09,3.15.27,5.3a5.48,5.48,0,0,0,1.61,3.21,4.31,4.31,0,0,0,3.09,1.21A4.14,4.14,0,0,0,185.65,288.12Z"/><path class="cls-3" d="M205.88,296.68a.78.78,0,0,1-.24-.57V250.77a.78.78,0,0,1,.24-.58.78.78,0,0,1,.57-.23h7.84a.78.78,0,0,1,.57.23.78.78,0,0,1,.24.58v45.34a.8.8,0,0,1-.81.8h-7.84A.78.78,0,0,1,205.88,296.68Z"/><path class="cls-3" d="M224.59,296.68a.78.78,0,0,1-.24-.57V250.77a.78.78,0,0,1,.24-.58.78.78,0,0,1,.57-.23H233a.78.78,0,0,1,.57.23.78.78,0,0,1,.24.58v45.34a.8.8,0,0,1-.81.8h-7.84A.78.78,0,0,1,224.59,296.68Z"/><path class="cls-3" d="M260.5,288.46a5.75,5.75,0,0,0,1.88-2.28.79.79,0,0,1,1-.54l6.37,1.34a.73.73,0,0,1,.6,1,12.91,12.91,0,0,1-4.79,6.94,15.78,15.78,0,0,1-17.41-.2,12.36,12.36,0,0,1-4.62-7.21,31.44,31.44,0,0,1-.94-8.38,45.54,45.54,0,0,1,.27-5.5,13.16,13.16,0,0,1,4.25-8.66c2.4-2.1,5.6-3.15,9.63-3.15q6.44,0,9.89,3.39t4.06,9.62c.22,2.38.34,4.68.34,6.91a.72.72,0,0,1-.81.81H252.39c-.23,0-.34.11-.34.33a12,12,0,0,0,.21,2.42,4.65,4.65,0,0,0,1.74,3,5.46,5.46,0,0,0,3.49,1.11A5.4,5.4,0,0,0,260.5,288.46Zm-8.18-14.55a23.27,23.27,0,0,0-.27,2.41c0,.22.11.33.34.33h8.72a.29.29,0,0,0,.33-.33,14.44,14.44,0,0,0-.26-2.28,4.87,4.87,0,0,0-1.41-3,4.3,4.3,0,0,0-3.09-1.07C254.27,270,252.81,271.31,252.32,273.91Z"/><path class="cls-3" d="M283.88,294.6a12.18,12.18,0,0,1-4.53-7.82,38.93,38.93,0,0,1-.54-7.24,50.08,50.08,0,0,1,.54-7.11,12,12,0,0,1,4.56-7.68,14.71,14.71,0,0,1,9.26-2.85,15,15,0,0,1,9.15,2.75,11.48,11.48,0,0,1,4.6,7.24c.08.41.17,1.05.26,1.95a.82.82,0,0,1-.8.87l-7.71.74h-.14c-.4,0-.65-.25-.74-.74a2.61,2.61,0,0,0-.06-.67c-.09-.36-.18-.67-.27-.94a4.28,4.28,0,0,0-1.54-2.21,4.51,4.51,0,0,0-2.82-.87,4.1,4.1,0,0,0-3,1.07,5.22,5.22,0,0,0-1.48,3,32.86,32.86,0,0,0-.4,5.57,27.78,27.78,0,0,0,.47,5.77,5.2,5.2,0,0,0,1.44,2.88,4,4,0,0,0,2.92,1.07,4.43,4.43,0,0,0,3.12-1.07,4.23,4.23,0,0,0,1.37-2.68l.14-.81a1.06,1.06,0,0,1,.3-.57.6.6,0,0,1,.57-.17l7.78.67a.82.82,0,0,1,.74.88,11.34,11.34,0,0,1-.14,1.34,11.18,11.18,0,0,1-4.39,7.71,15.15,15.15,0,0,1-9.42,2.82A14.64,14.64,0,0,1,283.88,294.6Z"/><path class="cls-3" d="M332.77,269.31a.75.75,0,0,1-.57.24H327c-.23,0-.34.11-.34.33v15a4.31,4.31,0,0,0,.84,3,3.14,3.14,0,0,0,2.58.84h1.34a.82.82,0,0,1,.81.81V296a.72.72,0,0,1-.81.81c-.76,0-1.87.06-3.35.06q-5.3,0-7.88-1.74t-2.58-6.57V269.88a.3.3,0,0,0-.34-.33h-3.08a.75.75,0,0,1-.57-.24.76.76,0,0,1-.24-.57v-5.5a.78.78,0,0,1,.24-.57.74.74,0,0,1,.57-.23h3.08a.31.31,0,0,0,.34-.34v-7.71a.79.79,0,0,1,.23-.57.78.78,0,0,1,.57-.24h7.45a.78.78,0,0,1,.57.24.79.79,0,0,1,.23.57v7.71a.3.3,0,0,0,.34.34h5.16a.74.74,0,0,1,.57.23.78.78,0,0,1,.24.57v5.5A.76.76,0,0,1,332.77,269.31Z"/><path class="cls-3" d="M342.16,257.57a5.49,5.49,0,0,1-1.57-4.06,5.38,5.38,0,0,1,1.57-4,6.12,6.12,0,0,1,8.12,0,5.39,5.39,0,0,1,1.58,4,5.55,5.55,0,0,1-1.55,4.06,6,6,0,0,1-8.15,0Zm-.46,39.11a.78.78,0,0,1-.24-.57V263.24a.78.78,0,0,1,.24-.57.73.73,0,0,1,.56-.23h7.85a.75.75,0,0,1,.57.23.78.78,0,0,1,.24.57v32.87a.78.78,0,0,1-.24.57.79.79,0,0,1-.57.23h-7.85A.77.77,0,0,1,341.7,296.68Z"/><path class="cls-3" d="M368.42,296.24l-9.32-32.93L359,263c0-.4.25-.6.74-.6h8.65a.8.8,0,0,1,.87.73l4.3,20.13c0,.17.11.26.2.26s.15-.09.2-.26l4.29-20.13a.8.8,0,0,1,.87-.73l8.66.06c.58,0,.8.29.67.87l-9.33,32.87a.87.87,0,0,1-.94.67h-8.85A.89.89,0,0,1,368.42,296.24Z"/><path class="cls-3" d="M411.88,288.46a5.75,5.75,0,0,0,1.88-2.28.79.79,0,0,1,1-.54l6.37,1.34a.73.73,0,0,1,.6,1,12.91,12.91,0,0,1-4.79,6.94,15.78,15.78,0,0,1-17.41-.2,12.43,12.43,0,0,1-4.63-7.21,31.9,31.9,0,0,1-.93-8.38,45.54,45.54,0,0,1,.27-5.5A13.16,13.16,0,0,1,398.5,265c2.4-2.1,5.6-3.15,9.63-3.15q6.44,0,9.89,3.39t4.06,9.62c.22,2.38.34,4.68.34,6.91a.72.72,0,0,1-.81.81H403.77c-.23,0-.34.11-.34.33a12,12,0,0,0,.21,2.42,4.65,4.65,0,0,0,1.74,3,5.46,5.46,0,0,0,3.49,1.11A5.4,5.4,0,0,0,411.88,288.46Zm-8.18-14.55a23.27,23.27,0,0,0-.27,2.41c0,.22.11.33.34.33h8.72a.29.29,0,0,0,.33-.33,14.44,14.44,0,0,0-.26-2.28,4.87,4.87,0,0,0-1.41-3,4.3,4.3,0,0,0-3.09-1.07C405.65,270,404.19,271.31,403.7,273.91Z"/><path class="cls-3" d="M8.74,343.62A6.63,6.63,0,0,1,6,341a7.58,7.58,0,0,1-1-3.9v-10.6a7.52,7.52,0,0,1,1-3.89A6.66,6.66,0,0,1,8.74,320a8.69,8.69,0,0,1,4.07-.92,9,9,0,0,1,4.09.9,6.74,6.74,0,0,1,2.76,2.55,7.14,7.14,0,0,1,1,3.73v.82a.42.42,0,0,1-.13.3.38.38,0,0,1-.3.13H16.93a.39.39,0,0,1-.3-.13.41.41,0,0,1-.12-.3v-.82a3.52,3.52,0,0,0-1-2.61,3.6,3.6,0,0,0-2.68-1,3.55,3.55,0,0,0-2.65,1.05,3.79,3.79,0,0,0-1,2.76v10.75a3.6,3.6,0,0,0,3.78,3.8,3.6,3.6,0,0,0,2.61-.94,3.43,3.43,0,0,0,1-2.58v-2.81a.16.16,0,0,0-.18-.18H13.09a.41.41,0,0,1-.3-.12.45.45,0,0,1-.12-.31v-2.59a.45.45,0,0,1,.12-.31.41.41,0,0,1,.3-.12h7.12a.41.41,0,0,1,.3.12.46.46,0,0,1,.13.31V337a7.24,7.24,0,0,1-2.14,5.53,8,8,0,0,1-5.69,2A8.57,8.57,0,0,1,8.74,343.62Z"/><path class="cls-3" d="M35.56,326.21a.42.42,0,0,1,.3-.13h3.27a.42.42,0,0,1,.3.13.38.38,0,0,1,.13.3v17.33a.39.39,0,0,1-.13.3.41.41,0,0,1-.3.12H35.86a.41.41,0,0,1-.3-.12.39.39,0,0,1-.13-.3v-1c0-.08,0-.12-.07-.13s-.09,0-.14.09a4.4,4.4,0,0,1-3.81,1.67,5.8,5.8,0,0,1-4-1.44,5.39,5.39,0,0,1-1.6-4.21V326.51a.38.38,0,0,1,.13-.3.42.42,0,0,1,.3-.13h3.27a.46.46,0,0,1,.31.13.41.41,0,0,1,.12.3v11.31a3.54,3.54,0,0,0,.69,2.33,2.48,2.48,0,0,0,2,.84,2.59,2.59,0,0,0,2.07-.87,3.56,3.56,0,0,0,.74-2.37V326.51A.38.38,0,0,1,35.56,326.21Z"/><path class="cls-3" d="M45.66,323.1a2.71,2.71,0,0,1,0-3.7,2.53,2.53,0,0,1,1.87-.71,2.62,2.62,0,0,1,1.85,4.41,2.54,2.54,0,0,1-1.85.71A2.57,2.57,0,0,1,45.66,323.1Zm-.07,21a.39.39,0,0,1-.13-.3V326.51a.38.38,0,0,1,.13-.3.42.42,0,0,1,.3-.13h3.27a.42.42,0,0,1,.3.13.38.38,0,0,1,.13.3v17.33a.39.39,0,0,1-.13.3.41.41,0,0,1-.3.12H45.89A.41.41,0,0,1,45.59,344.14Z"/><path class="cls-3" d="M65.15,319.49a.42.42,0,0,1,.31-.13h3.27a.38.38,0,0,1,.3.13.42.42,0,0,1,.13.3v24a.43.43,0,0,1-.13.3.41.41,0,0,1-.3.12H65.46a.45.45,0,0,1-.31-.12.42.42,0,0,1-.12-.3v-.93a.15.15,0,0,0-.07-.14s-.1,0-.15.07a4.64,4.64,0,0,1-3.87,1.71,4.84,4.84,0,0,1-3.59-1.35,8.09,8.09,0,0,1-2-4.06,17.63,17.63,0,0,1-.39-4,19.48,19.48,0,0,1,.32-3.91q1.09-5.41,5.72-5.41a4.37,4.37,0,0,1,3.77,1.64c0,.07.1.09.15.07a.15.15,0,0,0,.07-.14v-7.58A.41.41,0,0,1,65.15,319.49ZM65,335.16a13,13,0,0,0-.39-3.67,2.42,2.42,0,0,0-2.42-2.13,2.64,2.64,0,0,0-2.59,2.1,11.72,11.72,0,0,0-.47,3.7,13.41,13.41,0,0,0,.39,3.55A2.65,2.65,0,0,0,62.15,341c1.23,0,2.06-.75,2.49-2.24A13.76,13.76,0,0,0,65,335.16Z"/><path class="cls-3" d="M75.33,323.1a2.71,2.71,0,0,1,0-3.7,2.53,2.53,0,0,1,1.87-.71,2.62,2.62,0,0,1,1.85,4.41,2.54,2.54,0,0,1-1.85.71A2.57,2.57,0,0,1,75.33,323.1Zm-.07,21a.39.39,0,0,1-.13-.3V326.51a.38.38,0,0,1,.13-.3.42.42,0,0,1,.3-.13h3.27a.42.42,0,0,1,.3.13.38.38,0,0,1,.13.3v17.33a.39.39,0,0,1-.13.3.41.41,0,0,1-.3.12H75.56A.41.41,0,0,1,75.26,344.14Z"/><path class="cls-3" d="M97.44,327.44A6.55,6.55,0,0,1,98.9,332v11.88a.39.39,0,0,1-.13.3.41.41,0,0,1-.3.12H95.2a.45.45,0,0,1-.31-.12.42.42,0,0,1-.12-.3V332.52a3.42,3.42,0,0,0-.73-2.31,2.51,2.51,0,0,0-2-.85,2.65,2.65,0,0,0-1.89.71,3.05,3.05,0,0,0-.88,1.92v11.85a.43.43,0,0,1-.13.3.41.41,0,0,1-.3.12H85.56a.45.45,0,0,1-.31-.12.42.42,0,0,1-.12-.3V326.51a.41.41,0,0,1,.12-.3.46.46,0,0,1,.31-.13h3.27a.44.44,0,0,1,.43.43v.93c0,.07,0,.12.07.14s.09,0,.14-.07a4.81,4.81,0,0,1,3.91-1.71A5.17,5.17,0,0,1,97.44,327.44Z"/><path class="cls-3" d="M114.21,326.21a.42.42,0,0,1,.3-.13h3.27a.46.46,0,0,1,.31.13.41.41,0,0,1,.12.3V343.3q0,4.13-2.24,6.14t-6.47,2c-.34,0-.86,0-1.57-.07a.42.42,0,0,1-.43-.46l.11-2.85c0-.28.15-.42.46-.39s.6,0,1.07,0a5.36,5.36,0,0,0,3.81-1.1,4.78,4.78,0,0,0,1.13-3.56v-.32a.14.14,0,0,0-.07-.14s-.09,0-.14.07a4.64,4.64,0,0,1-3.73,1.57,5.84,5.84,0,0,1-3.92-1.37,6.2,6.2,0,0,1-2-3.9,23.26,23.26,0,0,1-.21-3.84,19,19,0,0,1,.28-4.05,6.46,6.46,0,0,1,1.85-3.85A5.35,5.35,0,0,1,110,325.8a4.92,4.92,0,0,1,3.88,1.6.16.16,0,0,0,.14.06s.07-.06.07-.13v-.82A.42.42,0,0,1,114.21,326.21Zm-.13,8.91a26.94,26.94,0,0,0-.14-3.2,3,3,0,0,0-.89-1.85,2.61,2.61,0,0,0-1.88-.71,2.65,2.65,0,0,0-1.89.71,3.15,3.15,0,0,0-.92,1.85,20.57,20.57,0,0,0-.22,3.2,23.88,23.88,0,0,0,.18,3.1,3.08,3.08,0,0,0,1,1.85,2.78,2.78,0,0,0,1.92.71,2.64,2.64,0,0,0,1.91-.71,3.09,3.09,0,0,0,.87-1.85C114.05,337.31,114.08,336.28,114.08,335.12Z"/><path class="cls-3" d="M132.19,350.92v-2.56a.59.59,0,0,1,.07-.31q.08-.12.15-.12h.17a6,6,0,0,0,2.07-.29,2.37,2.37,0,0,0,1.19-1,7.48,7.48,0,0,0,.76-2.24.25.25,0,0,0,0-.21l-5.15-17.58,0-.14c0-.23.13-.36.39-.36h3.49a.49.49,0,0,1,.5.36l2.84,11.88c0,.1.06.15.11.15s.08-.05.11-.15l2.77-11.88a.45.45,0,0,1,.46-.36h3.52a.36.36,0,0,1,.32.15.35.35,0,0,1,0,.35l-5.51,18.68a16.17,16.17,0,0,1-1.59,3.77,4.41,4.41,0,0,1-2.22,1.78,12.07,12.07,0,0,1-4,.53h-.21C132.26,351.34,132.19,351.2,132.19,350.92Z"/><path class="cls-3" d="M151.85,343.05a6.17,6.17,0,0,1-2.26-4.09,23.12,23.12,0,0,1-.29-3.8,23.49,23.49,0,0,1,.29-3.85,6.1,6.1,0,0,1,2.26-4,7.39,7.39,0,0,1,4.78-1.5,7.16,7.16,0,0,1,4.66,1.5,6.14,6.14,0,0,1,2.24,4,23.2,23.2,0,0,1,0,7.68,6.23,6.23,0,0,1-2.24,4.09,7.22,7.22,0,0,1-4.7,1.5A7.31,7.31,0,0,1,151.85,343.05Zm6.67-2.77a3.32,3.32,0,0,0,1-2,22.25,22.25,0,0,0,.18-3.16,21,21,0,0,0-.18-3.13,3.1,3.1,0,0,0-1-2,2.87,2.87,0,0,0-2-.71,2.83,2.83,0,0,0-2,.71,3.32,3.32,0,0,0-1,2,26.73,26.73,0,0,0-.18,3.13,28.3,28.3,0,0,0,.18,3.16,3.29,3.29,0,0,0,1,2,2.87,2.87,0,0,0,2,.71A2.8,2.8,0,0,0,158.52,340.28Z"/><path class="cls-3" d="M178.74,326.21a.42.42,0,0,1,.3-.13h3.28a.45.45,0,0,1,.3.13.41.41,0,0,1,.12.3v17.33a.42.42,0,0,1-.12.3.44.44,0,0,1-.3.12H179a.41.41,0,0,1-.3-.12.42.42,0,0,1-.12-.3v-1c0-.08,0-.12-.08-.13s-.09,0-.14.09a4.37,4.37,0,0,1-3.8,1.67,5.76,5.76,0,0,1-4-1.44,5.36,5.36,0,0,1-1.6-4.21V326.51a.41.41,0,0,1,.12-.3.42.42,0,0,1,.3-.13h3.27a.46.46,0,0,1,.31.13.41.41,0,0,1,.12.3v11.31a3.49,3.49,0,0,0,.7,2.33,2.45,2.45,0,0,0,2,.84,2.58,2.58,0,0,0,2.06-.87,3.51,3.51,0,0,0,.75-2.37V326.51A.41.41,0,0,1,178.74,326.21Z"/><path class="cls-3" d="M197.81,323.1a2.71,2.71,0,0,1,0-3.7,2.53,2.53,0,0,1,1.87-.71,2.62,2.62,0,0,1,1.85,4.41,2.54,2.54,0,0,1-1.85.71A2.57,2.57,0,0,1,197.81,323.1Zm-.07,21a.39.39,0,0,1-.13-.3V326.51a.38.38,0,0,1,.13-.3.42.42,0,0,1,.3-.13h3.27a.42.42,0,0,1,.3.13.38.38,0,0,1,.13.3v17.33a.39.39,0,0,1-.13.3.41.41,0,0,1-.3.12H198A.41.41,0,0,1,197.74,344.14Z"/><path class="cls-3" d="M219.92,327.44a6.55,6.55,0,0,1,1.45,4.52v11.88a.42.42,0,0,1-.12.3.41.41,0,0,1-.3.12h-3.28a.44.44,0,0,1-.3-.12.42.42,0,0,1-.12-.3V332.52a3.47,3.47,0,0,0-.73-2.31,2.51,2.51,0,0,0-2-.85,2.65,2.65,0,0,0-1.89.71,3.06,3.06,0,0,0-.89,1.92v11.85a.42.42,0,0,1-.12.3.41.41,0,0,1-.3.12H208a.41.41,0,0,1-.3-.12.42.42,0,0,1-.12-.3V326.51a.41.41,0,0,1,.12-.3.42.42,0,0,1,.3-.13h3.28a.42.42,0,0,1,.3.13.41.41,0,0,1,.12.3v.93a.14.14,0,0,0,.08.14s.09,0,.14-.07a4.81,4.81,0,0,1,3.91-1.71A5.18,5.18,0,0,1,219.92,327.44Z"/><path class="cls-3" d="M235.41,329.09a.43.43,0,0,1-.3.13h-2.88c-.12,0-.18.06-.18.17v8.9a2.66,2.66,0,0,0,.51,1.85,2.21,2.21,0,0,0,1.62.53h.64a.44.44,0,0,1,.43.43v2.66a.44.44,0,0,1-.43.47h-1.49a6.85,6.85,0,0,1-4-.93q-1.32-.92-1.32-3.48V329.39a.15.15,0,0,0-.17-.17h-1.64a.42.42,0,0,1-.3-.13.38.38,0,0,1-.13-.3v-2.28a.38.38,0,0,1,.13-.3.42.42,0,0,1,.3-.13h1.64a.15.15,0,0,0,.17-.17v-4.06a.42.42,0,0,1,.13-.3.41.41,0,0,1,.3-.12h3.13a.41.41,0,0,1,.3.12.38.38,0,0,1,.13.3v4.06c0,.12.06.17.18.17h2.88a.43.43,0,0,1,.3.13.41.41,0,0,1,.12.3v2.28A.41.41,0,0,1,235.41,329.09Z"/><path class="cls-3" d="M242.42,343.05a6.17,6.17,0,0,1-2.26-4.09,23.12,23.12,0,0,1-.29-3.8,23.49,23.49,0,0,1,.29-3.85,6.1,6.1,0,0,1,2.26-4,7.39,7.39,0,0,1,4.78-1.5,7.16,7.16,0,0,1,4.66,1.5,6.14,6.14,0,0,1,2.24,4,23.2,23.2,0,0,1,0,7.68,6.23,6.23,0,0,1-2.24,4.09,7.21,7.21,0,0,1-4.69,1.5A7.34,7.34,0,0,1,242.42,343.05Zm6.67-2.77a3.32,3.32,0,0,0,1-2,22.25,22.25,0,0,0,.18-3.16,21,21,0,0,0-.18-3.13,3.1,3.1,0,0,0-1-2,2.87,2.87,0,0,0-2-.71,2.83,2.83,0,0,0-2,.71,3.32,3.32,0,0,0-1,2,26.73,26.73,0,0,0-.18,3.13,28.3,28.3,0,0,0,.18,3.16,3.29,3.29,0,0,0,1,2,2.9,2.9,0,0,0,2,.71A2.78,2.78,0,0,0,249.09,340.28Z"/><path class="cls-3" d="M277.17,329.09a.42.42,0,0,1-.3.13H274c-.12,0-.18.06-.18.17v8.9a2.61,2.61,0,0,0,.52,1.85,2.17,2.17,0,0,0,1.61.53h.64a.42.42,0,0,1,.31.13.41.41,0,0,1,.12.3v2.66a.44.44,0,0,1-.43.47h-1.49a6.85,6.85,0,0,1-3.95-.93c-.88-.61-1.31-1.77-1.31-3.48V329.39a.16.16,0,0,0-.18-.17H268a.42.42,0,0,1-.3-.13.38.38,0,0,1-.13-.3v-2.28a.38.38,0,0,1,.13-.3.42.42,0,0,1,.3-.13h1.64c.11,0,.18-.05.18-.17v-4.06a.41.41,0,0,1,.42-.42h3.13a.45.45,0,0,1,.31.12.41.41,0,0,1,.12.3v4.06c0,.12.06.17.18.17h2.88a.44.44,0,0,1,.43.43v2.28A.42.42,0,0,1,277.17,329.09Z"/><path class="cls-3" d="M294.51,327.44A6.5,6.5,0,0,1,296,332v11.88a.42.42,0,0,1-.12.3.45.45,0,0,1-.31.12h-3.27a.41.41,0,0,1-.3-.12.42.42,0,0,1-.12-.3V332.52a3.47,3.47,0,0,0-.73-2.31,2.51,2.51,0,0,0-2-.85,2.65,2.65,0,0,0-1.89.71,3.06,3.06,0,0,0-.89,1.92v11.85a.42.42,0,0,1-.12.3.45.45,0,0,1-.31.12h-3.27a.41.41,0,0,1-.3-.12.43.43,0,0,1-.13-.3v-24a.42.42,0,0,1,.13-.3.38.38,0,0,1,.3-.13h3.27a.42.42,0,0,1,.31.13.41.41,0,0,1,.12.3v7.65c0,.07,0,.12.07.14s.1,0,.14-.07a4.83,4.83,0,0,1,3.92-1.71A5.14,5.14,0,0,1,294.51,327.44Z"/><path class="cls-3" d="M310.43,340.46a3.34,3.34,0,0,0,1.16-1.43.41.41,0,0,1,.53-.28l2.64.67a.4.4,0,0,1,.32.54,6.21,6.21,0,0,1-2.37,3.36,7.25,7.25,0,0,1-4.32,1.23,7.11,7.11,0,0,1-4.47-1.37,6.14,6.14,0,0,1-2.25-3.72,16.87,16.87,0,0,1-.5-4.44,26.19,26.19,0,0,1,.18-3.46,6.21,6.21,0,0,1,2.17-4.19,7.08,7.08,0,0,1,4.76-1.57,6.81,6.81,0,0,1,5,1.71,7.44,7.44,0,0,1,2,4.8c.12,1.35.18,2.65.18,3.88a.39.39,0,0,1-.43.43h-9.57c-.12,0-.18.06-.18.17a10.86,10.86,0,0,0,.11,1.6,3,3,0,0,0,1.05,1.91,3.27,3.27,0,0,0,2.15.73A3.42,3.42,0,0,0,310.43,340.46ZM306.36,330a3,3,0,0,0-.92,1.82,11.38,11.38,0,0,0-.15,1.63.16.16,0,0,0,.18.18h5.66c.12,0,.17-.06.17-.18,0-.71-.09-1.22-.14-1.52a3.14,3.14,0,0,0-.92-1.91,2.83,2.83,0,0,0-2-.69A2.71,2.71,0,0,0,306.36,330Z"/><path class="cls-3" d="M338.29,326.21a.41.41,0,0,1,.12.3v2.42a.41.41,0,0,1-.12.3.42.42,0,0,1-.31.13H335.1a.16.16,0,0,0-.18.18v14.3a.42.42,0,0,1-.12.3.41.41,0,0,1-.3.12h-3.24a.41.41,0,0,1-.3-.12.39.39,0,0,1-.13-.3v-14.3c0-.12-.06-.18-.17-.18H329a.44.44,0,0,1-.43-.43v-2.42a.38.38,0,0,1,.13-.3.42.42,0,0,1,.3-.13h1.71a.15.15,0,0,0,.17-.17v-.78a8,8,0,0,1,.63-3.51,3.58,3.58,0,0,1,2-1.81,9.67,9.67,0,0,1,3.68-.52h.75a.41.41,0,0,1,.3.12.45.45,0,0,1,.12.31v2.45a.41.41,0,0,1-.12.3.38.38,0,0,1-.3.13h-.57a2.38,2.38,0,0,0-1.85.66,3.22,3.22,0,0,0-.54,2.11v.54c0,.12.06.17.18.17H338A.46.46,0,0,1,338.29,326.21Z"/><path class="cls-3" d="M352.84,326.21a.42.42,0,0,1,.3-.13h3.27a.42.42,0,0,1,.3.13.38.38,0,0,1,.13.3v17.33a.39.39,0,0,1-.13.3.41.41,0,0,1-.3.12h-3.27a.41.41,0,0,1-.3-.12.39.39,0,0,1-.13-.3v-1c0-.08,0-.12-.07-.13s-.1,0-.14.09a4.4,4.4,0,0,1-3.81,1.67,5.8,5.8,0,0,1-4-1.44,5.39,5.39,0,0,1-1.6-4.21V326.51a.38.38,0,0,1,.13-.3.42.42,0,0,1,.3-.13h3.27a.42.42,0,0,1,.3.13.38.38,0,0,1,.13.3v11.31a3.54,3.54,0,0,0,.69,2.33,2.46,2.46,0,0,0,2,.84,2.59,2.59,0,0,0,2.07-.87,3.56,3.56,0,0,0,.74-2.37V326.51A.38.38,0,0,1,352.84,326.21Z"/><path class="cls-3" d="M371,329.09a.43.43,0,0,1-.3.13H367.8c-.12,0-.18.06-.18.17v8.9a2.66,2.66,0,0,0,.51,1.85,2.21,2.21,0,0,0,1.62.53h.64a.42.42,0,0,1,.31.13.41.41,0,0,1,.12.3v2.66a.44.44,0,0,1-.43.47H368.9a6.85,6.85,0,0,1-3.95-.93q-1.32-.92-1.32-3.48V329.39a.15.15,0,0,0-.17-.17h-1.64a.42.42,0,0,1-.3-.13.38.38,0,0,1-.13-.3v-2.28a.38.38,0,0,1,.13-.3.42.42,0,0,1,.3-.13h1.64a.15.15,0,0,0,.17-.17v-4.06a.42.42,0,0,1,.13-.3.41.41,0,0,1,.3-.12h3.13a.41.41,0,0,1,.3.12.38.38,0,0,1,.13.3v4.06c0,.12.06.17.18.17h2.88a.43.43,0,0,1,.3.13.42.42,0,0,1,.13.3v2.28A.42.42,0,0,1,371,329.09Z"/><path class="cls-3" d="M385.6,326.21a.42.42,0,0,1,.3-.13h3.27a.46.46,0,0,1,.31.13.41.41,0,0,1,.12.3v17.33a.42.42,0,0,1-.12.3.45.45,0,0,1-.31.12H385.9a.41.41,0,0,1-.3-.12.43.43,0,0,1-.13-.3v-1c0-.08,0-.12-.07-.13s-.09,0-.14.09a4.38,4.38,0,0,1-3.8,1.67,5.8,5.8,0,0,1-4-1.44,5.39,5.39,0,0,1-1.6-4.21V326.51a.38.38,0,0,1,.13-.3.42.42,0,0,1,.3-.13h3.27a.46.46,0,0,1,.31.13.41.41,0,0,1,.12.3v11.31a3.54,3.54,0,0,0,.69,2.33,2.48,2.48,0,0,0,2,.84,2.59,2.59,0,0,0,2.07-.87,3.51,3.51,0,0,0,.74-2.37V326.51A.42.42,0,0,1,385.6,326.21Z"/><path class="cls-3" d="M405,326.3a.43.43,0,0,1,.21.53l-.6,3.24c0,.28-.19.37-.5.25a3.68,3.68,0,0,0-1.17-.18c-.12,0-.35,0-.68.07a3,3,0,0,0-2.05,1.12,3.77,3.77,0,0,0-.8,2.44v10.07a.41.41,0,0,1-.42.42h-3.28a.41.41,0,0,1-.3-.12.42.42,0,0,1-.12-.3V326.51a.41.41,0,0,1,.12-.3.42.42,0,0,1,.3-.13H399a.43.43,0,0,1,.3.13.41.41,0,0,1,.12.3v1.64c0,.09,0,.15.06.16s.07,0,.12-.09a4,4,0,0,1,3.67-2.35A3.51,3.51,0,0,1,405,326.3Z"/><path class="cls-3" d="M418,340.46a3.32,3.32,0,0,0,1.15-1.43.42.42,0,0,1,.54-.28l2.63.67a.4.4,0,0,1,.32.54,6.16,6.16,0,0,1-2.37,3.36,7.25,7.25,0,0,1-4.32,1.23,7.06,7.06,0,0,1-4.46-1.37,6.1,6.1,0,0,1-2.26-3.72,17.3,17.3,0,0,1-.5-4.44,26.19,26.19,0,0,1,.18-3.46,6.25,6.25,0,0,1,2.17-4.19,7.09,7.09,0,0,1,4.77-1.57,6.83,6.83,0,0,1,5,1.71,7.43,7.43,0,0,1,2,4.8c.12,1.35.18,2.65.18,3.88a.38.38,0,0,1-.43.43h-9.56c-.12,0-.18.06-.18.17a9.65,9.65,0,0,0,.11,1.6,2.94,2.94,0,0,0,1,1.91,3.3,3.3,0,0,0,2.16.73A3.42,3.42,0,0,0,418,340.46ZM413.93,330a3.06,3.06,0,0,0-.92,1.82,12.75,12.75,0,0,0-.14,1.63.16.16,0,0,0,.18.18h5.65a.16.16,0,0,0,.18-.18c-.05-.71-.1-1.22-.14-1.52a3.15,3.15,0,0,0-.93-1.91,2.8,2.8,0,0,0-2-.69A2.72,2.72,0,0,0,413.93,330Z"/></svg>